<?xml version="1.0" encoding="UTF-8"?>
<svg width="806px" height="312px" viewBox="0 0 806 312" version="1.1" xmlns="http://www.w3.org/2000/svg" xmlns:xlink="http://www.w3.org/1999/xlink" style="background: #252B3A;">
    <title>logo1</title>
    <g id="logo1" stroke="none" stroke-width="1" fill="none" fill-rule="evenodd">
        <rect fill="#252B3A" x="0" y="0" width="806" height="312"></rect>
        <g id="shape_a8vBVkHm9x" transform="translate(158.434417, 104.717670)" fill="#FFFFFF" fill-rule="nonzero">
            <path d="M130.475737,111.86009 L118.689856,111.86009 C114.861964,111.86009 111.603218,110.515291 108.91362,107.825693 C106.224022,105.136094 104.879223,101.877349 104.879223,98.0494562 L104.879223,98.0494562 L104.879223,15.6691765 L28.8602961,15.6691765 L28.8602961,94.9518852 L21.2599145,111.693879 L0,111.693879 L7.44928062,94.9518852 L7.44928062,0.45330308 L104.879223,0.45330308 L116.982415,0.45330308 L125.670724,0.45330308 L125.670724,94.0150588 C125.670724,94.9418118 126.033366,95.7426472 126.758651,96.4175652 C127.483936,97.0924831 128.309955,97.429942 129.236708,97.429942 L129.236708,97.429942 L135.915374,97.429942 L130.475737,111.86009 Z M81.4585635,19.7035739 L100.995926,19.7035739 C99.2431544,26.8355423 96.5535561,33.8919603 92.9271314,40.8728277 C89.3107802,47.8536952 85.019511,54.4467366 80.053324,60.6519521 L80.053324,60.6519521 C85.744796,65.3058638 92.7256634,69.1841234 100.995926,72.2867312 L100.995926,72.2867312 L100.995926,91.688103 C94.7907108,90.5498086 88.792,88.5049081 82.999794,85.5534013 C77.207588,82.611968 71.6772904,78.9653966 66.4089012,74.613687 L66.4089012,74.613687 C61.1304387,78.9653966 55.5951044,82.611968 49.8028984,85.5534013 C44.0106924,88.5049081 38.0119816,90.5498086 31.8067661,91.688103 L31.8067661,91.688103 L31.8067661,72.2867312 C39.976295,69.1841234 46.9571624,65.3058638 52.7493684,60.6519521 L52.7493684,60.6519521 C47.7831814,54.4467366 43.4919122,47.8536952 39.875561,40.8728277 C36.2491363,33.8919603 33.559538,26.8355423 31.8067661,19.7035739 L31.8067661,19.7035739 L51.359239,19.7035739 C53.6358278,24.3574855 55.9627836,28.9056264 58.3401064,33.3479966 C60.7174292,37.8004402 63.4070275,42.0413423 66.4089012,46.070703 L66.4089012,46.070703 C69.4007016,42.0413423 72.0902999,37.8004402 74.4776961,33.3479966 C76.8550189,28.9056264 79.1819747,24.3574855 81.4585635,19.7035739 L81.4585635,19.7035739 Z" id="形状"></path>
            <path d="M199.990671,96.4931157 L199.990671,80.5217371 L221.084374,80.5217371 L221.084374,95.1029862 C221.084374,97.480309 220.646181,99.7014941 219.769795,101.766541 C218.893409,103.841662 217.679564,105.629691 216.12826,107.130628 C214.576956,108.621491 212.763744,109.810153 210.688623,110.696612 C208.623576,111.572998 206.402391,112.011191 204.025068,112.011191 L204.025068,112.011191 L189.746021,112.011191 L193.780418,101.313238 L195.019447,101.313238 C196.470017,101.313238 197.658678,100.844825 198.585431,99.9079989 C199.522257,98.9812459 199.990671,97.8429515 199.990671,96.4931157 L199.990671,96.4931157 Z M248.388329,60.0324379 L248.388329,64.5352485 L278.804966,64.5352485 L278.804966,75.8678255 L251.334799,75.8678255 L278.804966,87.5026046 L248.388329,87.5026046 L221.084374,75.8678255 L200.292873,75.8678255 L172.837816,87.5026046 L142.58739,87.5026046 L169.891346,75.8678255 L142.58739,75.8678255 L142.58739,64.5352485 L169.891346,64.5352485 L169.891346,60.0324379 L147.075091,60.0324379 L147.075091,48.5487599 L169.891346,48.5487599 L169.891346,44.2121604 L150.187772,44.2121604 L150.187772,32.7284824 L150.187772,28.2256718 L150.187772,16.9082049 L150.187772,13.1760095 L150.187772,3.71708526 L150.187772,0.302202053 L271.204584,0.302202053 L271.204584,0.921716263 L271.204584,13.1760095 L271.204584,16.9082049 L271.204584,28.2256718 L271.204584,29.6309113 C271.204584,31.6959587 270.816758,33.609905 270.041107,35.3727504 C269.265455,37.1255223 268.227894,38.6516426 266.928425,39.9511115 C265.63903,41.2405069 264.087726,42.2730306 262.274514,43.0486825 C260.471375,43.8243345 258.587649,44.2121604 256.623335,44.2121604 L256.623335,44.2121604 L248.388329,44.2121604 L248.388329,48.5487599 L274.151054,48.5487599 L274.151054,60.0324379 L248.388329,60.0324379 Z M171.130374,13.1760095 L171.130374,16.9082049 L250.261982,16.9082049 L250.261982,13.1760095 L171.130374,13.1760095 Z M171.130374,28.2256718 L171.130374,32.7284824 L247.768815,32.7284824 C249.430926,32.7284824 250.261982,31.9024634 250.261982,30.2504256 L250.261982,30.2504256 L250.261982,28.2256718 L171.130374,28.2256718 Z M190.985049,44.2121604 L190.985049,48.5487599 L227.294626,48.5487599 L227.294626,44.2121604 L190.985049,44.2121604 Z M190.985049,64.5352485 L227.294626,64.5352485 L227.294626,60.0324379 L190.985049,60.0324379 L190.985049,64.5352485 Z M270.58507,90.7512767 L264.994332,98.3516583 L235.831834,98.3516583 L241.407462,90.7512767 L270.58507,90.7512767 Z M230.089995,101.61544 L261.111036,101.61544 L278.804966,112.011191 L248.388329,112.011191 L230.089995,101.61544 Z M179.818683,90.7512767 L185.560522,98.3516583 L156.382914,98.3516583 L150.656185,90.7512767 L179.818683,90.7512767 Z M172.837816,112.011191 L142.58739,112.011191 L160.266211,101.61544 L191.15126,101.61544 L172.837816,112.011191 Z" id="形状"></path>
            <path d="M421.543458,11.3174669 L421.543458,26.6844413 L367.086648,26.6844413 L358.700541,47.0075294 L397.034871,47.0075294 L393.302676,35.9922646 L411.298808,35.9922646 L421.075044,64.0668353 L402.927811,64.0668353 L402.142086,61.8909805 L399.664029,61.8909805 L399.664029,91.839204 C399.664029,93.2897739 400.132442,94.4784353 401.069268,95.4051883 C401.996021,96.3420146 403.184683,96.8104278 404.635253,96.8104278 L404.635253,96.8104278 L419.836016,96.8104278 L413.00625,112.162292 L394.073291,112.162292 C390.144664,112.162292 386.835552,110.792309 384.145953,108.052344 C381.456355,105.312379 380.111556,101.978083 380.111556,98.0494562 L380.111556,98.0494562 L380.111556,61.8909805 L365.681408,61.8909805 L356.071383,112.162292 L335.582083,112.162292 L345.207219,61.8909805 L329.386941,61.8909805 L344.436604,26.6844413 L334.509266,26.6844413 L334.509266,11.3174669 L368.325676,11.3174669 L363.203351,0 L387.727048,0 L392.683161,11.3174669 L421.543458,11.3174669 Z M330.006456,90.6001756 L285.325882,90.6001756 L303.624216,52.1298542 L285.325882,52.1298542 L308.278128,2.32695581 L332.333411,2.32695581 L314.48838,38.1530092 L318.054364,38.1530092 L330.006456,38.1530092 L312.629838,76.4873397 L330.006456,76.4873397 L330.006456,90.6001756 Z M285.325882,112.162292 L285.325882,98.0494562 L330.006456,98.0494562 L330.006456,112.162292 L285.325882,112.162292 Z" id="形状"></path>
            <path d="M528.758098,0.302202053 L528.758098,29.9331134 L563.964637,29.9331134 L563.964637,45.1338767 L528.758098,45.1338767 L528.758098,111.86009 L507.498183,111.86009 L507.498183,45.1338767 L472.427635,45.1338767 L472.427635,29.9331134 L507.498183,29.9331134 L507.498183,0.302202053 L528.758098,0.302202053 Z M464.676152,25.2792018 L439.38184,25.2792018 L428.215475,0.302202053 L453.509786,0.302202053 L464.676152,25.2792018 Z M428.215475,49.3344852 L428.215475,34.1186118 L437.205986,34.1186118 L458.163698,34.1186118 L458.4659,34.1186118 L458.4659,93.6977467 C458.4659,95.0475825 458.934313,96.1858769 459.87114,97.1126299 C460.797893,98.0494562 461.93115,98.5178694 463.270913,98.5178694 L463.270913,98.5178694 L472.427635,98.5178694 L466.534695,111.86009 L454.129301,111.86009 C451.741904,111.86009 449.540866,111.41686 447.526186,110.530401 C445.511505,109.654015 443.728513,108.44017 442.177209,106.888866 C440.625906,105.337562 439.412061,103.55457 438.535675,101.53989 C437.649215,99.5252096 437.205986,97.329208 437.205986,94.9518852 L437.205986,94.9518852 L437.205986,49.3344852 L428.215475,49.3344852 Z" id="形状"></path>
            <polygon id="路径" points="189.043641 160.395358 189.043641 133.574926 185.205675 133.574926 185.205675 160.395358"></polygon>
            <path d="M230.158807,160.893992 C233.200975,160.893992 235.794876,160.108266 237.94051,158.536816 L237.94051,158.536816 C240.086145,156.975438 241.158962,155.086676 241.158962,152.870527 L241.158962,152.870527 C241.158962,150.462984 240.267466,148.619552 238.484474,147.34023 L238.484474,147.34023 C237.215225,146.45377 235.235802,145.713375 232.546204,145.119045 L232.546204,145.119045 C229.111174,144.383686 227.136787,143.92031 226.623043,143.728915 L226.623043,143.728915 C224.819904,143.043924 223.918335,142.0114 223.918335,140.631344 L223.918335,140.631344 C223.918335,139.603857 224.522739,138.727471 225.731547,138.002186 L225.731547,138.002186 C226.950429,137.286975 228.426182,136.929369 230.158807,136.929369 L230.158807,136.929369 C231.710111,136.929369 233.075057,137.327268 234.253645,138.123067 L234.253645,138.123067 C235.412086,138.898719 236.102114,139.875839 236.323729,141.054427 L236.323729,141.054427 L240.191916,141.054427 C239.990447,138.818132 238.922667,136.929369 236.988574,135.388138 L236.988574,135.388138 C235.064554,133.846908 232.787965,133.076293 230.158807,133.076293 L230.158807,133.076293 C227.378548,133.076293 225.001226,133.816688 223.026839,135.297478 L223.026839,135.297478 C221.062526,136.778268 220.080369,138.556223 220.080369,140.631344 L220.080369,140.631344 C220.080369,142.978447 220.976902,144.766476 222.769967,145.995431 L222.769967,145.995431 C224.008996,146.831523 225.988419,147.531624 228.708237,148.095735 L228.708237,148.095735 C231.961946,148.770653 233.94137,149.254176 234.646508,149.546305 L234.646508,149.546305 C236.439573,150.261516 237.336106,151.36959 237.336106,152.870527 L237.336106,152.870527 C237.336106,154.018895 236.630968,155.001052 235.220692,155.816997 L235.220692,155.816997 C233.820489,156.643016 232.133194,157.056026 230.158807,157.056026 L230.158807,157.056026 C228.164274,157.056026 226.466906,156.542282 225.066703,155.514795 L225.066703,155.514795 C223.656426,154.477235 222.951288,153.23317 222.951288,151.7826 L222.951288,151.7826 L219.128432,151.7826 C219.128432,154.30095 220.206286,156.446585 222.361994,158.219504 L222.361994,158.219504 C224.507629,160.002496 227.106567,160.893992 230.158807,160.893992 L230.158807,160.893992 Z" id="路径"></path>
            <polygon id="路径" points="257.432404 160.395358 257.432404 137.397782 249.303168 137.397782 249.303168 133.574926 269.429825 133.574926 269.429825 137.397782 261.27037 137.397782 261.27037 160.395358"></polygon>
            <path d="M296.433668,153.21806 L284.013164,153.21806 L280.976033,160.395358 L276.805645,160.395358 L288.198662,133.574926 L292.248169,133.574926 L303.641187,160.395358 L299.485909,160.395358 L296.433668,153.21806 Z M285.660165,149.395204 L294.801777,149.395204 L290.223416,138.60659 L285.660165,149.395204 Z" id="形状"></path>
            <polygon id="路径" points="319.153671 160.395358 319.153671 137.397782 311.024436 137.397782 311.024436 133.574926 331.151093 133.574926 331.151093 137.397782 322.991637 137.397782 322.991637 160.395358"></polygon>
            <polygon id="路径" points="343.860778 160.395358 343.860778 133.574926 340.022812 133.574926 340.022812 160.395358"></polygon>
            <path d="M363.781694,160.893992 C366.823861,160.893992 369.417762,160.108266 371.563397,158.536816 L371.563397,158.536816 C373.709031,156.975438 374.781849,155.086676 374.781849,152.870527 L374.781849,152.870527 C374.781849,150.462984 373.890353,148.619552 372.10736,147.34023 L372.10736,147.34023 C370.838112,146.45377 368.858688,145.713375 366.16909,145.119045 L366.16909,145.119045 C362.73406,144.383686 360.759673,143.92031 360.24593,143.728915 L360.24593,143.728915 C358.442791,143.043924 357.541221,142.0114 357.541221,140.631344 L357.541221,140.631344 C357.541221,139.603857 358.145626,138.727471 359.354434,138.002186 L359.354434,138.002186 C360.573315,137.286975 362.049069,136.929369 363.781694,136.929369 L363.781694,136.929369 C365.332998,136.929369 366.697944,137.327268 367.876532,138.123067 L367.876532,138.123067 C369.034973,138.898719 369.725001,139.875839 369.946616,141.054427 L369.946616,141.054427 L373.814802,141.054427 C373.613334,138.818132 372.545553,136.929369 370.61146,135.388138 L370.61146,135.388138 C368.687441,133.846908 366.410852,133.076293 363.781694,133.076293 L363.781694,133.076293 C361.001435,133.076293 358.624112,133.816688 356.649725,135.297478 L356.649725,135.297478 C354.685412,136.778268 353.703255,138.556223 353.703255,140.631344 L353.703255,140.631344 C353.703255,142.978447 354.599788,144.766476 356.392854,145.995431 L356.392854,145.995431 C357.631882,146.831523 359.611306,147.531624 362.331124,148.095735 L362.331124,148.095735 C365.584833,148.770653 367.564256,149.254176 368.269394,149.546305 L368.269394,149.546305 C370.06246,150.261516 370.958993,151.36959 370.958993,152.870527 L370.958993,152.870527 C370.958993,154.018895 370.253855,155.001052 368.843578,155.816997 L368.843578,155.816997 C367.443375,156.643016 365.756081,157.056026 363.781694,157.056026 L363.781694,157.056026 C361.78716,157.056026 360.089792,156.542282 358.689589,155.514795 L358.689589,155.514795 C357.279313,154.477235 356.574175,153.23317 356.574175,151.7826 L356.574175,151.7826 L352.751319,151.7826 C352.751319,154.30095 353.829173,156.446585 355.984881,158.219504 L355.984881,158.219504 C358.130515,160.002496 360.729453,160.893992 363.781694,160.893992 L363.781694,160.893992 Z" id="路径"></path>
            <polygon id="路径" points="391.05529 160.395358 391.05529 137.397782 382.926055 137.397782 382.926055 133.574926 403.052712 133.574926 403.052712 137.397782 394.893256 137.397782 394.893256 160.395358"></polygon>
            <polygon id="路径" points="415.762397 160.395358 415.762397 133.574926 411.924431 133.574926 411.924431 160.395358"></polygon>
            <path d="M438.554233,160.893992 C442.865648,160.893992 446.411486,159.241954 449.191745,155.937878 L449.191745,155.937878 L446.260385,153.444711 C444.245705,155.852254 441.676987,157.056026 438.554233,157.056026 L438.554233,157.056026 C435.773974,157.056026 433.401688,156.073869 431.437374,154.109556 L431.437374,154.109556 C429.462987,152.145242 428.475794,149.772956 428.475794,146.992697 L428.475794,146.992697 C428.475794,144.202365 429.462987,141.825042 431.437374,139.860729 L431.437374,139.860729 C433.401688,137.906489 435.773974,136.929369 438.554233,136.929369 L438.554233,136.929369 C441.676987,136.929369 444.245705,138.128104 446.260385,140.525573 L446.260385,140.525573 L449.191745,138.062627 C446.411486,134.738404 442.865648,133.076293 438.554233,133.076293 L438.554233,133.076293 C434.706193,133.076293 431.427301,134.436202 428.717556,137.15602 L428.717556,137.15602 C426.007811,139.875839 424.652938,143.154731 424.652938,146.992697 L424.652938,146.992697 C424.652938,150.830663 426.007811,154.104519 428.717556,156.814264 L428.717556,156.814264 C431.427301,159.534083 434.706193,160.893992 438.554233,160.893992 L438.554233,160.893992 Z" id="路径"></path>
            <path d="M468.357347,160.893992 C471.399514,160.893992 473.993415,160.108266 476.13905,158.536816 L476.13905,158.536816 C478.284685,156.975438 479.357502,155.086676 479.357502,152.870527 L479.357502,152.870527 C479.357502,150.462984 478.466006,148.619552 476.683014,147.34023 L476.683014,147.34023 C475.413765,146.45377 473.434342,145.713375 470.744743,145.119045 L470.744743,145.119045 C467.309713,144.383686 465.335327,143.92031 464.821583,143.728915 L464.821583,143.728915 C463.018444,143.043924 462.116875,142.0114 462.116875,140.631344 L462.116875,140.631344 C462.116875,139.603857 462.721279,138.727471 463.930087,138.002186 L463.930087,138.002186 C465.148969,137.286975 466.624722,136.929369 468.357347,136.929369 L468.357347,136.929369 C469.908651,136.929369 471.273597,137.327268 472.452185,138.123067 L472.452185,138.123067 C473.610626,138.898719 474.300654,139.875839 474.522269,141.054427 L474.522269,141.054427 L478.390455,141.054427 C478.188987,138.818132 477.121207,136.929369 475.187114,135.388138 L475.187114,135.388138 C473.263094,133.846908 470.986505,133.076293 468.357347,133.076293 L468.357347,133.076293 C465.577088,133.076293 463.199765,133.816688 461.225379,135.297478 L461.225379,135.297478 C459.261065,136.778268 458.278909,138.556223 458.278909,140.631344 L458.278909,140.631344 C458.278909,142.978447 459.175441,144.766476 460.968507,145.995431 L460.968507,145.995431 C462.207535,146.831523 464.186959,147.531624 466.906777,148.095735 L466.906777,148.095735 C470.160486,148.770653 472.13991,149.254176 472.845048,149.546305 L472.845048,149.546305 C474.638113,150.261516 475.534646,151.36959 475.534646,152.870527 L475.534646,152.870527 C475.534646,154.018895 474.829508,155.001052 473.419232,155.816997 L473.419232,155.816997 C472.019029,156.643016 470.331734,157.056026 468.357347,157.056026 L468.357347,157.056026 C466.362814,157.056026 464.665445,156.542282 463.265243,155.514795 L463.265243,155.514795 C461.854966,154.477235 461.149828,153.23317 461.149828,151.7826 L461.149828,151.7826 L457.326972,151.7826 C457.326972,154.30095 458.404826,156.446585 460.560534,158.219504 L460.560534,158.219504 C462.706169,160.002496 465.305106,160.893992 468.357347,160.893992 L468.357347,160.893992 Z" id="路径"></path>
        </g>
        <g id="shape_wbjS6YuID6" fill-rule="nonzero">
            <g id="编组">
                <path d="M200.368812,266.961983 C198.347153,266.736889 196.999381,264.936133 197.22401,263.135378 L197.22401,263.135378 C197.448639,261.109528 199.245668,259.758962 201.042698,259.984056 L201.042698,259.984056 C203.064356,260.20915 204.412129,262.009906 204.1875,263.810661 L204.1875,263.810661 C203.962871,265.611416 202.39047,266.961983 200.593441,266.961983 L200.593441,266.961983 C200.818069,266.961983 200.593441,266.961983 200.368812,266.961983 Z M218.563738,263.810661 C218.339109,261.784811 219.686881,260.20915 221.70854,259.984056 L221.70854,259.984056 C223.730198,259.758962 225.302599,261.109528 225.527228,263.135378 L225.527228,263.135378 C225.751856,265.161228 224.404084,266.736889 222.382426,266.961983 L222.382426,266.961983 C222.157797,266.961983 222.157797,266.961983 221.933168,266.961983 L221.933168,266.961983 C220.136139,266.961983 218.788366,265.611416 218.563738,263.810661 Z M179.029084,262.460095 L179.029084,262.460095 L179.029084,262.460095 C177.232054,261.784811 176.108911,259.758962 176.782797,257.958206 L176.782797,257.958206 C177.456683,256.157451 179.478342,255.031979 181.275371,255.707262 L181.275371,255.707262 C183.072401,256.382545 184.195545,258.408395 183.521658,260.20915 L183.521658,260.20915 C183.072401,261.784811 181.724629,262.685189 180.152228,262.685189 L180.152228,262.685189 C179.70297,262.685189 179.478342,262.460095 179.029084,262.460095 Z M239.454208,260.20915 C238.780322,258.408395 239.903465,256.382545 241.700495,255.707262 L241.700495,255.707262 C243.497525,255.031979 245.519183,256.157451 246.193069,257.958206 L246.193069,257.958206 C246.866955,259.758962 245.743812,261.784811 243.946782,262.460095 L243.946782,262.460095 L243.946782,262.460095 L243.946782,262.460095 C243.497525,262.460095 243.272896,262.685189 242.823639,262.685189 L242.823639,262.685189 C241.251238,262.460095 239.903465,261.559717 239.454208,260.20915 Z M159.037129,253.456318 C157.240099,252.55594 156.790842,250.304996 157.689356,248.50424 L157.689356,248.50424 C158.587871,246.703485 160.834158,246.253296 162.406559,247.153674 L162.406559,247.153674 C164.203589,248.054052 164.652847,250.304996 163.754332,251.880657 L163.754332,251.880657 C163.080446,253.006129 161.957302,253.681412 160.60953,253.681412 L160.60953,253.681412 C160.160272,253.906507 159.486386,253.906507 159.037129,253.456318 Z M258.996906,252.105751 C258.098391,250.304996 258.547649,248.279146 260.344678,247.378768 L260.344678,247.378768 C262.141708,246.478391 264.163366,246.92858 265.061881,248.729335 L265.061881,248.729335 C265.960396,250.53009 265.511139,252.55594 263.714109,253.456318 L263.714109,253.456318 C263.264851,253.681412 262.590965,253.906507 261.917079,253.906507 L261.917079,253.906507 C260.793936,253.906507 259.670792,253.231223 258.996906,252.105751 Z M141.29146,240.625936 C139.943688,239.275369 139.719059,237.024425 141.066832,235.673858 L141.066832,235.673858 C142.414604,234.323292 144.660891,234.098198 146.008663,235.448764 L146.008663,235.448764 C147.356436,236.799331 147.581064,239.050275 146.233292,240.400841 L146.233292,240.400841 C145.559406,241.076125 144.660891,241.526313 143.537748,241.526313 L143.537748,241.526313 C142.639233,241.526313 141.965347,241.301219 141.29146,240.625936 Z M276.517946,240.175747 C275.170173,238.82518 275.394802,236.574236 276.742574,235.22367 L276.742574,235.22367 C278.090347,233.873103 280.336634,234.098198 281.684406,235.448764 L281.684406,235.448764 C283.032178,236.799331 282.80755,239.050275 281.459777,240.400841 L281.459777,240.400841 C280.785891,241.076125 279.887376,241.301219 279.21349,241.301219 L279.21349,241.301219 C278.314975,241.301219 277.191832,241.076125 276.517946,240.175747 Z M126.465965,224.194043 C125.342822,222.618382 125.56745,220.367438 127.139851,219.241966 L127.139851,219.241966 C128.712252,218.116494 130.95854,218.341588 132.081683,219.917249 L132.081683,219.917249 C133.204827,221.49291 132.980198,223.743854 131.407797,224.869326 L131.407797,224.869326 C130.733911,225.319515 130.060025,225.54461 129.386139,225.54461 L129.386139,225.54461 C128.262995,225.769704 127.139851,225.319515 126.465965,224.194043 Z M115.459158,205.286112 C115.459158,205.286112 115.459158,205.286112 115.459158,205.286112 L115.459158,205.286112 C114.560644,203.485356 115.459158,201.459507 117.256188,200.559129 L117.256188,200.559129 C119.053218,199.658751 121.074876,200.559129 121.973391,202.359884 L121.973391,202.359884 C122.871906,204.16064 121.973391,206.186489 120.176361,207.086867 L120.176361,207.086867 C119.727104,207.311961 119.277847,207.311961 118.828589,207.311961 L118.828589,207.311961 C117.480817,207.311961 116.133045,206.636678 115.459158,205.286112 Z M108.720297,184.352331 L108.720297,184.352331 L108.720297,184.352331 C108.27104,182.551575 109.618812,180.525725 111.415842,180.075537 L111.415842,180.075537 C113.212871,179.625348 115.23453,180.975914 115.683787,182.77667 L115.683787,182.77667 C116.133045,184.802519 114.785272,186.603275 112.988243,187.053464 L112.988243,187.053464 C112.763614,187.053464 112.538985,187.053464 112.314356,187.053464 L112.314356,187.053464 C110.517327,187.278558 109.169554,186.153086 108.720297,184.352331 Z M106.47401,162.518172 C106.47401,160.492322 108.046411,158.916661 110.068069,158.916661 L110.068069,158.916661 C112.089728,158.916661 113.662129,160.492322 113.662129,162.518172 L113.662129,162.518172 C113.662129,164.544022 112.089728,166.119682 110.068069,166.119682 L110.068069,166.119682 C108.046411,166.119682 106.47401,164.544022 106.47401,162.518172 Z M111.415842,144.960807 C109.618812,144.510618 108.27104,142.709863 108.720297,140.684013 L108.720297,140.684013 C109.169554,138.883258 110.966584,137.532691 112.988243,137.98288 L112.988243,137.98288 C114.785272,138.433069 116.133045,140.233824 115.683787,142.259674 L115.683787,142.259674 C115.23453,143.835335 113.886757,144.960807 112.314356,144.960807 L112.314356,144.960807 C111.865099,144.960807 111.64047,144.960807 111.415842,144.960807 Z M117.031559,124.477215 C115.459158,123.576837 114.560644,121.550987 115.459158,119.750232 L115.459158,119.750232 C115.459158,119.750232 115.459158,119.750232 115.459158,119.750232 L115.459158,119.750232 C116.133045,117.949476 118.379332,117.274193 120.176361,117.949476 L120.176361,117.949476 C121.973391,118.849854 122.871906,120.875704 121.973391,122.676459 L121.973391,122.676459 C121.299505,124.027026 120.176361,124.702309 118.828589,124.702309 L118.828589,124.702309 C118.154703,124.702309 117.705446,124.702309 117.031559,124.477215 Z M127.139851,105.794378 C125.56745,104.668906 125.118193,102.417961 126.241337,100.8423 L126.241337,100.8423 L126.241337,100.8423 L126.241337,100.8423 C127.36448,99.2666395 129.610767,99.0415451 131.183168,100.167017 L131.183168,100.167017 C132.755569,101.292489 133.204827,103.543434 132.081683,105.119094 L132.081683,105.119094 C131.407797,106.019472 130.284653,106.694755 129.16151,106.694755 L129.16151,106.694755 C128.487624,106.469661 127.589109,106.244567 127.139851,105.794378 Z M140.617574,89.362485 C139.269802,88.0119185 139.494431,85.7609743 140.842203,84.4104078 L140.842203,84.4104078 C142.189975,83.0598412 144.436262,83.2849357 145.784035,84.6355022 L145.784035,84.6355022 C147.131807,85.9860687 146.907178,88.2370129 145.559406,89.5875794 L145.559406,89.5875794 C144.88552,90.2628627 143.987005,90.4879571 143.08849,90.4879571 L143.08849,90.4879571 C142.414604,90.4879571 141.29146,90.2628627 140.617574,89.362485 Z M276.517946,89.1373906 C275.170173,87.7868241 274.945545,85.5358799 276.293317,84.1853133 L276.293317,84.1853133 C277.641089,82.8347468 279.887376,82.6096524 281.235149,83.9602189 L281.235149,83.9602189 L281.235149,83.9602189 L281.235149,83.9602189 C282.80755,85.3107854 282.80755,87.5617297 281.459777,88.9122962 L281.459777,88.9122962 C280.785891,89.8126739 279.887376,90.0377683 278.764233,90.0377683 L278.764233,90.0377683 C278.090347,90.0377683 277.191832,89.8126739 276.517946,89.1373906 Z M157.240099,76.3070086 C156.341584,74.5062533 156.790842,72.4804035 158.587871,71.5800258 L158.587871,71.5800258 C158.587871,71.5800258 158.587871,71.5800258 158.587871,71.5800258 L158.587871,71.5800258 C160.384901,70.6796481 162.406559,71.1298369 163.305074,72.9305923 L163.305074,72.9305923 C164.203589,74.7313477 163.754332,76.7571975 161.957302,77.6575751 L161.957302,77.6575751 C161.283416,77.8826696 160.834158,78.107764 160.160272,78.107764 L160.160272,78.107764 C159.261757,78.107764 157.913985,77.4324807 157.240099,76.3070086 Z M259.895421,77.2073863 C258.098391,76.3070086 257.649134,74.0560644 258.547649,72.4804035 L258.547649,72.4804035 C259.446163,70.6796481 261.69245,70.2294593 263.264851,71.1298369 L263.264851,71.1298369 C265.061881,72.0302146 265.511139,74.2811588 264.612624,75.8568198 L264.612624,75.8568198 C263.938738,76.9822919 262.815594,77.6575751 261.467822,77.6575751 L261.467822,77.6575751 C261.018564,77.6575751 260.569307,77.6575751 259.895421,77.2073863 Z M176.33354,66.853043 C175.659653,65.0522876 176.782797,63.0264378 178.579827,62.3511545 L178.579827,62.3511545 C180.376856,61.6758713 182.398515,62.8013434 183.072401,64.6020987 L183.072401,64.6020987 C183.746287,66.4028541 182.623144,68.4287039 180.826114,69.1039872 L180.826114,69.1039872 C180.376856,69.3290816 180.152228,69.3290816 179.70297,69.3290816 L179.70297,69.3290816 C178.130569,69.3290816 176.782797,68.4287039 176.33354,66.853043 Z M241.251238,68.8788927 C239.454208,68.2036095 238.331064,66.4028541 239.00495,64.3770043 L239.00495,64.3770043 C239.678837,62.576249 241.700495,61.4507769 243.497525,62.1260601 L243.497525,62.1260601 L243.497525,62.1260601 L243.497525,62.1260601 C245.294554,62.8013434 246.417698,64.6020987 245.743812,66.6279485 L245.743812,66.6279485 C245.294554,68.2036095 243.946782,69.1039872 242.374381,69.1039872 L242.374381,69.1039872 C241.925124,69.1039872 241.700495,69.1039872 241.251238,68.8788927 Z M196.999381,61.6758713 C196.774752,59.6500215 198.122525,58.0743605 200.144183,57.8492661 L200.144183,57.8492661 C202.165842,57.6241717 203.738243,58.9747382 203.962871,61.000588 L203.962871,61.000588 C204.1875,63.0264378 202.839728,64.6020987 200.818069,64.8271932 L200.818069,64.8271932 C200.818069,64.8271932 200.593441,64.8271932 200.368812,64.8271932 L200.368812,64.8271932 C198.571782,64.8271932 196.999381,63.4766266 196.999381,61.6758713 Z M221.259282,64.8271932 C219.237624,64.6020987 217.889851,62.8013434 218.11448,61.000588 L218.11448,61.000588 C218.339109,58.9747382 220.136139,57.6241717 221.933168,57.8492661 L221.933168,57.8492661 C223.954827,58.0743605 225.302599,59.6500215 225.07797,61.6758713 L225.07797,61.6758713 C224.853342,63.4766266 223.280941,64.8271932 221.483911,64.8271932 L221.483911,64.8271932 C221.483911,64.8271932 221.259282,64.8271932 221.259282,64.8271932 Z" id="形状" fill="#FDC800"></path>
                <g transform="translate(23.267418, 12.380193)" id="路径">
                    <path d="M161.826642,256.157451 C133.748053,249.404618 109.937409,233.648009 92.8656268,212.939322 L88.1484238,212.489133 C65.2362951,209.562906 43.4473099,198.983468 27.0494139,182.551575 C24.8031268,180.300631 22.5568396,177.824592 20.3105525,175.348554 C16.4918644,170.621571 12.897805,165.669494 9.97763173,160.492322 C12.6731763,223.743854 56.700404,280.017459 120.944216,295.548974 C187.883572,311.755773 255.272186,278.216704 284.698548,219.016871 C254.5983,251.430468 208.100156,267.187077 161.826642,256.157451 Z" fill="#DF1B7D"></path>
                    <path d="M100.95226,7.20302146 C100.503003,7.20302146 100.278374,7.20302146 99.8291169,7.20302146 C99.8291169,7.20302146 99.8291169,7.20302146 99.6044882,7.20302146 C97.8074585,7.20302146 96.2350575,7.20302146 94.4380278,7.42811588 C85.4528793,7.87830472 76.243102,9.67906009 67.2579535,12.830382 C14.9194634,31.2881245 -12.7098683,88.6872018 5.70968618,141.134202 C6.83282975,144.285524 8.18060202,147.436846 9.5283743,150.588167 C13.3470624,158.691567 18.0642654,165.894588 23.4553545,172.422326 C25.4770129,174.898365 27.4986713,177.149309 29.7449585,179.400253 C45.4689684,195.156863 66.3594387,205.061017 88.3730525,207.76215 C88.1484238,207.311961 88.1484238,207.086867 87.9237951,206.636678 C87.9237951,206.636678 87.9237951,206.636678 87.9237951,206.636678 C83.8804783,198.308185 80.960305,190.204786 78.7140179,182.101386 C73.7721862,164.093833 72.6490426,146.536468 74.8953297,130.32967 C71.3012703,142.034579 69.0549832,154.639867 69.2796119,168.145532 C69.2796119,171.747043 69.5042406,175.348554 69.7288694,178.950064 L71.3012703,198.308185 L61.417607,181.651198 C60.9683495,180.975914 60.7437208,180.300631 60.5190921,179.850442 C50.1861713,161.167605 45.0197109,140.00873 45.2443396,118.399665 C45.4689684,106.244567 47.2659981,94.0894679 51.0846862,82.1594636 C57.8235476,61.000588 69.9534981,42.0926567 86.3513941,27.2364249 C87.4745377,26.1109528 88.8223099,25.2105751 89.9454535,24.085103 C91.2932258,22.9596309 92.8656268,21.8341588 94.2133991,20.7086867 C100.727632,15.7566094 107.691122,11.4798155 114.879241,8.10339915 C110.386666,7.42811588 105.669463,7.20302146 100.95226,7.20302146 Z" fill="#FDC800"></path>
                    <path d="M264.931221,47.2698283 C241.345206,16.2067983 205.629241,0 169.464018,0 C155.986295,0 142.733201,2.25094421 129.704736,6.75283262 C128.581592,7.20302146 127.23382,7.6532103 126.110676,8.10339915 C124.987533,8.55358799 123.63976,9.00377683 122.516617,9.67906009 C121.168845,10.3543434 119.821072,10.8045322 118.4733,11.4798155 C115.328498,13.0554764 112.408325,14.6311373 109.263523,16.4318927 C104.995577,18.9079313 100.95226,21.6090644 97.1335723,24.5352919 C94.4380278,26.5611416 91.9671119,28.5869914 89.4961961,30.8379356 C73.0983,45.469073 61.8668644,63.9268155 55.5772604,83.7351245 C51.983201,94.9898455 50.1861713,106.694755 49.9615426,118.62476 C49.7369139,138.883258 54.6787456,159.36685 64.7870377,177.824592 C65.0116664,178.274781 65.2362951,178.950064 65.6855525,179.400253 C64.7870377,170.171382 65.0116664,161.167605 66.1348099,152.388923 C68.1564684,135.056652 73.5475575,119.300043 81.1849337,105.344189 C83.4312208,101.517584 85.677508,97.6909786 88.1484238,94.0894679 C90.6193396,90.4879571 93.0902555,87.3366352 95.7858,83.9602189 C107.466493,70.2294593 121.618102,59.4249271 136.218968,52.447 C139.139142,51.0964335 142.283944,49.745867 145.204117,48.6203949 C145.878003,48.3953005 146.551889,48.170206 147.225775,47.7200172 C147.899661,47.4949228 148.573548,47.2698283 149.247434,46.8196395 C149.472062,46.8196395 149.696691,46.5945451 149.92132,46.5945451 C157.558696,43.893412 165.64533,41.8675623 173.507335,40.7420901 C178.898424,40.0668069 184.514142,39.616618 190.129859,39.616618 C225.845825,39.616618 261.112533,55.5983219 284.698548,85.7609743 C280.655231,72.4804035 274.140998,59.1998326 264.931221,47.2698283 Z" fill="#009DDA"></path>
                </g>
                <ellipse id="椭圆形" fill="#72C413" cx="14.1516089" cy="166.569871" rx="14.1516089" ry="14.1809485"></ellipse>
                <ellipse id="椭圆形" fill="#FDC800" cx="143.313119" cy="6.07754936" rx="6.06497525" ry="6.07754936"></ellipse>
                <ellipse id="椭圆形" fill="#FCC802" cx="341.884901" cy="60.7754936" rx="21.115099" ry="21.1588755"></ellipse>
                <ellipse id="椭圆形" fill="#019CDB" cx="294.712871" cy="31.5132189" rx="11.9053218" ry="11.9300043"></ellipse>
            </g>
        </g>
    </g>
</svg>